<svg width="133" height="26" viewBox="0 0 133 26" fill="none" xmlns="http://www.w3.org/2000/svg">
<g clip-path="url(#clip0_41_21)">
<path d="M13.6272 20.2583C14.0432 19.8929 15.921 19.1338 16.1262 18.819C16.3933 18.4072 15.0144 16.3958 14.6546 15.9475C14.254 15.8533 12.6334 17.3319 11.9475 17.2251C11.5793 17.1675 10.3255 14.9664 10.4042 14.5897C10.4337 14.4463 12.8696 13.3401 12.975 13.1968C13.1788 12.9171 11.762 10.6626 11.4373 10.3351C10.9257 10.1847 9.0605 12.0962 8.37037 11.4061C7.95994 10.9957 7.54671 9.63088 7.07585 9.12206C7.10818 8.69618 9.84339 7.77835 9.75344 7.23159C9.72954 7.08682 8.36474 4.77327 8.22419 4.7311C7.65775 4.56665 5.56206 6.33906 5.2922 6.15071C5.13337 5.4887 4.08623 4.47389 4.14948 3.84279C4.25771 2.77316 8.32398 0.851764 9.36691 0.548164C20.5734 -2.71132 30.0145 9.21764 24.412 19.4051C23.6488 20.7924 21.1427 23.8467 19.619 24.2402C19.3014 24.3232 19.4546 24.1967 19.3717 24.0561C19.1735 23.7188 18.0294 21.5683 17.8846 21.557C17.0567 22.1249 16.0981 22.4945 15.2323 22.9823C15.1915 23.0048 15.1114 22.9598 15.0721 22.9823C14.5633 22.1474 14.1219 21.2619 13.6272 20.4185C13.6033 20.3792 13.651 20.2977 13.6272 20.2583Z" fill="#1D1D1D"/>
<path d="M4.48099 17.8492C4.7129 18.0094 6.97445 16.5912 7.35254 16.3171C7.30616 15.724 5.72912 13.7478 5.93855 13.3879C6.57246 13.2488 7.96115 12.0259 8.43763 11.9472C8.91411 11.8685 9.79399 14.2102 10.2367 14.5714L7.53807 16.3494C7.59851 16.9468 9.10246 18.7473 8.90006 19.1367C8.67939 19.5597 6.27307 20.5225 6.24777 20.8177C6.64976 21.2085 7.569 23.3688 7.94568 23.4405C8.51634 23.4096 10.3787 21.8663 10.7343 22.0911C10.9761 22.2443 12.3057 24.6029 12.1089 24.9079C11.9881 25.0948 10.5108 25.8637 10.2128 25.837C8.90428 25.7189 8.37438 24.7772 8.00191 23.6246C7.4931 23.6021 7.10938 24.2529 6.64133 24.2543C6.13111 24.2543 3.93141 22.5128 3.99888 22.1207C4.54986 21.5135 5.4199 21.2619 6.09035 20.8065C6.14798 20.4635 4.95466 18.3987 4.62716 18.2526C3.98342 17.9644 2.55818 19.4318 1.84416 19.4515C1.51667 19.3573 0.504664 16.9342 0.633975 16.5237C0.763287 16.1133 2.89411 15.5033 2.83929 14.9242C2.82664 14.7836 1.54197 12.5558 1.4239 12.4785C1.03596 12.2255 0.420331 13.2769 0.0492634 12.7358C-0.143298 12.456 0.251664 11.0631 0.299453 10.6485C0.886976 10.8059 0.967092 12.0808 1.49418 12.0906C2.13933 12.1032 3.75572 10.5234 4.31232 10.879C4.52737 11.0153 5.49299 13.0436 5.74458 13.4357C5.65463 13.8096 3.32562 14.7007 3.20193 15.0802C3.0164 15.6467 4.41633 17.1408 4.47817 17.852L4.48099 17.8492Z" fill="#1D1D1D"/>
<path d="M6.872 9.19094C6.76939 9.3329 4.56548 10.314 4.23095 10.6049C3.49163 10.1678 3.11213 7.87112 2.18587 8.11147C2.08607 8.13817 0.568071 9.21483 0.784527 8.48675C0.867455 8.20986 1.60818 6.64266 1.82464 6.64266C2.14511 6.76213 2.43465 7.73056 2.6244 7.74602C2.91816 7.76851 4.84659 6.31236 5.20079 6.31236C5.57607 6.31236 7.04488 8.94918 6.87059 9.18953L6.872 9.19094Z" fill="#1D1D1D"/>
<path d="M13.6271 20.2583C13.651 20.2977 13.6032 20.3792 13.6271 20.4185C13.0409 20.2934 10.9045 22.0743 10.5911 21.8508L9.12366 19.0636C9.75616 18.8471 11.3543 17.5287 11.9151 17.71C12.3269 17.8435 13.0381 19.9673 13.6271 20.2569V20.2583Z" fill="#1D1D1D"/>
<path d="M15.072 22.9823C15.1128 22.9598 15.1915 23.0047 15.2323 22.9823C15.2182 23.6105 16.4987 24.9669 16.3497 25.449C16.2485 25.7751 13.3024 26.2263 12.9018 25.8679C12.8569 25.8285 12.3312 24.8938 12.3452 24.8362C12.4001 24.5972 14.3791 23.5923 14.7488 23.373C14.9259 23.2676 15.0271 23.0076 15.072 22.9823Z" fill="#1D1D1D"/>
</g>
<g clip-path="url(#clip1_41_21)">
<path d="M95.3601 0.999985V15.2594C95.7537 15.2467 96.0741 14.8068 96.3271 14.5425C98.2668 12.5326 100.072 10.3722 102.022 8.37073H106.759L99.7482 16.1406L107.402 24.5515H102.264C102.237 24.5515 102.216 24.2549 102.034 24.068C100.153 22.1424 98.3511 20.1577 96.4888 18.2195C96.1908 17.9102 95.7916 17.3874 95.3601 17.3424V24.5515H91.3458V0.999985H95.3601Z" fill="#1D1D1D"/>
<path d="M43.8211 22.3082C41.0339 25.9571 34.9605 25.4665 32.6104 21.5591C31.1219 19.0853 31.0924 14.9768 32.1381 12.3344C34.0792 7.429 40.4913 6.3397 43.8183 10.4538V8.37073H47.834V24.5515H43.8197V22.3082H43.8211ZM38.9649 11.1355C33.9724 11.8467 33.9457 22.4038 40.3508 21.649C45.3307 21.0615 45.2632 10.2387 38.9649 11.1355Z" fill="#1D1D1D"/>
<path d="M82.9969 22.3082C80.2097 25.9571 74.1363 25.4665 71.7862 21.5591C70.2977 19.0853 70.2682 14.9768 71.3139 12.3344C73.255 7.429 79.6671 6.3397 82.9941 10.4538V8.37073H87.0098V24.5515H82.9955V22.3082H82.9969ZM78.1407 11.1355C73.1481 11.8467 73.1214 22.4038 79.5266 21.649C84.5065 21.0615 84.439 10.2387 78.1407 11.1355Z" fill="#1D1D1D"/>
<path d="M132.449 24.5515H128.434V13.7371C128.434 13.6247 128.027 12.489 127.928 12.3189C126.871 10.5016 123.646 10.9851 122.423 12.3836C121.97 12.9022 121.37 14.3598 121.37 15.0176V24.5501H117.356C117.226 19.1612 117.665 13.7217 117.035 8.36932H120.889L121.29 10.7714C123.464 7.12259 130.115 6.75996 131.885 10.9345C132.019 11.2479 132.449 12.5298 132.449 12.7743V24.5501V24.5515Z" fill="#1D1D1D"/>
<path d="M67.2631 24.5515H63.2488V13.7371C63.2488 13.6247 62.8412 12.489 62.7428 12.3189C61.6858 10.5016 58.4601 10.9851 57.2372 12.3836C56.7846 12.9022 56.1845 14.3598 56.1845 15.0176V24.5501H52.1702C52.0296 19.1626 52.4949 13.7189 51.8497 8.36932H55.7038L56.1044 10.7714C58.2787 7.12259 64.9298 6.75996 66.6994 10.9345C66.833 11.2479 67.2631 12.5298 67.2631 12.7743V24.5501V24.5515Z" fill="#1D1D1D"/>
<path d="M113.021 8.36932H109.007V24.5501H113.021V8.36932Z" fill="#1D1D1D"/>
<path d="M113.342 0.999985V5.00582H108.927C108.91 5.00582 108.686 4.78234 108.686 4.76547V1.24034C108.686 1.22347 108.91 0.999985 108.927 0.999985H113.342Z" fill="#1D1D1D"/>
</g>
<defs>
<clipPath id="clip0_41_21">
<rect width="26.0745" height="26" fill="white"/>
</clipPath>
<clipPath id="clip1_41_21">
<rect width="101.033" height="23.7862" fill="white" transform="translate(31.4158 1)"/>
</clipPath>
</defs>
</svg>
